<svg width="28" height="26" viewBox="0 0 28 26" fill="none" xmlns="http://www.w3.org/2000/svg">
<path d="M11.5 25.5C11.2348 25.5 10.9804 25.3946 10.7929 25.2071C10.6053 25.0196 10.5 24.7652 10.5 24.5V14.885L1.22999 4.69C0.865077 4.28788 0.624727 3.78848 0.538112 3.25242C0.451497 2.71636 0.522341 2.16668 0.742044 1.6701C0.961748 1.17351 1.32087 0.751376 1.77581 0.454918C2.23076 0.15846 2.76198 0.000427612 3.30499 0H24.695C25.238 0.000427612 25.7692 0.15846 26.2242 0.454918C26.6791 0.751376 27.0382 1.17351 27.2579 1.6701C27.4776 2.16668 27.5485 2.71636 27.4619 3.25242C27.3753 3.78848 27.1349 4.28788 26.77 4.69L17.5 14.885V20.5C17.4999 20.6498 17.4662 20.7977 17.4012 20.9327C17.3363 21.0677 17.2419 21.1864 17.125 21.28L12.125 25.28C11.9477 25.4222 11.7273 25.4998 11.5 25.5ZM3.30499 2C3.14938 2.00039 2.99722 2.04587 2.86692 2.13094C2.73662 2.21601 2.63377 2.33702 2.57082 2.47933C2.50787 2.62163 2.48751 2.77914 2.51221 2.93277C2.53691 3.08641 2.60561 3.2296 2.70999 3.345L12.24 13.845C12.4033 14.0245 12.4957 14.2574 12.5 14.5V22.42L15.5 20V14.5C15.4994 14.2504 15.5921 14.0097 15.76 13.825L25.29 3.325C25.3882 3.20908 25.4515 3.06775 25.4728 2.91734C25.494 2.76693 25.4723 2.61357 25.41 2.475C25.3478 2.33643 25.2476 2.21829 25.1211 2.13424C24.9946 2.05018 24.8468 2.00364 24.695 2H3.30499Z" fill="white"/>
<path d="M3.30499 2C3.14938 2.00039 2.99722 2.04587 2.86692 2.13094C2.73662 2.21601 2.63377 2.33702 2.57082 2.47933C2.50787 2.62163 2.48751 2.77914 2.51221 2.93277C2.53691 3.08641 2.60561 3.2296 2.70999 3.345L12.24 13.845C12.4033 14.0245 12.4957 14.2574 12.5 14.5V22.42L15.5 20V14.5C15.4994 14.2504 15.5921 14.0097 15.76 13.825L25.29 3.325C25.3882 3.20908 25.4515 3.06775 25.4728 2.91734C25.494 2.76693 25.4723 2.61357 25.41 2.475C25.3478 2.33643 25.2476 2.21829 25.1211 2.13424C24.9946 2.05018 24.8468 2.00364 24.695 2H3.30499Z" fill="white"/>
</svg>
