<svg width="28" height="28" viewBox="0 0 28 28" fill="none" xmlns="http://www.w3.org/2000/svg">
<path d="M26.9467 25.0533L23.1734 21.2933C25.2189 18.7662 26.2168 15.5505 25.9612 12.3093C25.7056 9.06812 24.2161 6.04857 21.7997 3.8733C19.3833 1.69803 16.2244 0.532899 12.9743 0.618171C9.72412 0.703443 6.63061 2.03261 4.33163 4.3316C2.03264 6.63058 0.703473 9.72409 0.618202 12.9742C0.53293 16.2244 1.69806 19.3833 3.87333 21.7997C6.0486 24.2161 9.06815 25.7056 12.3093 25.9612C15.5505 26.2168 18.7662 25.2189 21.2934 23.1733L25.0534 26.9467C25.1773 27.0716 25.3248 27.1708 25.4873 27.2385C25.6497 27.3062 25.824 27.3411 26 27.3411C26.176 27.3411 26.3503 27.3062 26.5128 27.2385C26.6753 27.1708 26.8227 27.0716 26.9467 26.9467C27.0717 26.8227 27.1709 26.6752 27.2385 26.5128C27.3062 26.3503 27.3411 26.176 27.3411 26C27.3411 25.824 27.3062 25.6497 27.2385 25.4872C27.1709 25.3247 27.0717 25.1773 26.9467 25.0533ZM3.33335 13.3333C3.33335 11.3555 3.91984 9.42211 5.01866 7.77762C6.11747 6.13313 7.67926 4.8514 9.50652 4.09453C11.3338 3.33765 13.3444 3.13962 15.2843 3.52547C17.2241 3.91132 19.0059 4.86373 20.4044 6.26225C21.8029 7.66078 22.7554 9.44261 23.1412 11.3824C23.5271 13.3222 23.329 15.3329 22.5721 17.1602C21.8153 18.9874 20.5335 20.5492 18.8891 21.648C17.2446 22.7468 15.3112 23.3333 13.3334 23.3333C10.6812 23.3333 8.13765 22.2798 6.26228 20.4044C4.38692 18.529 3.33335 15.9855 3.33335 13.3333Z" fill="#514F4D"/>
</svg>
