<svg width="27" height="27" viewBox="0 0 27 27" fill="none" xmlns="http://www.w3.org/2000/svg">
<path d="M26.4467 24.5533L22.6733 20.7933C24.7189 18.2662 25.7168 15.0505 25.4612 11.8093C25.2056 8.56809 23.7161 5.54854 21.2997 3.37327C18.8833 1.198 15.7244 0.0328686 12.4742 0.11814C9.2241 0.203412 6.1306 1.53258 3.83161 3.83157C1.53263 6.13055 0.203458 9.22406 0.118186 12.4742C0.0329144 15.7243 1.19804 18.8833 3.37331 21.2997C5.54858 23.716 8.56814 25.2056 11.8093 25.4612C15.0505 25.7167 18.2662 24.7189 20.7933 22.6733L24.5533 26.4466C24.6773 26.5716 24.8248 26.6708 24.9872 26.7385C25.1497 26.8062 25.324 26.841 25.5 26.841C25.676 26.841 25.8503 26.8062 26.0128 26.7385C26.1753 26.6708 26.3227 26.5716 26.4467 26.4466C26.5716 26.3227 26.6708 26.1752 26.7385 26.0127C26.8062 25.8503 26.8411 25.676 26.8411 25.5C26.8411 25.3239 26.8062 25.1497 26.7385 24.9872C26.6708 24.8247 26.5716 24.6772 26.4467 24.5533ZM2.83334 12.8333C2.83334 10.8555 3.41983 8.92208 4.51864 7.27759C5.61746 5.6331 7.17924 4.35137 9.0065 3.5945C10.8338 2.83762 12.8444 2.63959 14.7842 3.02544C16.7241 3.41129 18.5059 4.3637 19.9044 5.76222C21.3029 7.16075 22.2553 8.94258 22.6412 10.8824C23.027 12.8222 22.829 14.8329 22.0721 16.6601C21.3153 18.4874 20.0335 20.0492 18.389 21.148C16.7446 22.2468 14.8112 22.8333 12.8333 22.8333C10.1812 22.8333 7.63763 21.7797 5.76227 19.9044C3.88691 18.029 2.83334 15.4855 2.83334 12.8333Z" fill="white"/>
</svg>
