<svg width="16" height="28" viewBox="0 0 16 28" fill="none" xmlns="http://www.w3.org/2000/svg">
<path fill-rule="evenodd" clip-rule="evenodd" d="M14.1427 0.666658C14.3166 0.666412 14.4889 0.700491 14.6496 0.766941C14.8104 0.833391 14.9564 0.930907 15.0794 1.0539C15.2024 1.17689 15.2999 1.32295 15.3664 1.48369C15.4328 1.64444 15.4669 1.81672 15.4667 1.99066V8.68826C15.4664 8.92508 15.4035 9.15762 15.2845 9.36235C15.1655 9.56708 14.9945 9.73672 14.7888 9.85412L12.2341 11.3139C10.9296 10.6239 9.47576 10.2644 8 10.2667C6.52789 10.2645 5.07758 10.6223 3.77547 11.3091L1.2288 9.84772C1.02681 9.7317 0.859055 9.56438 0.742504 9.3627C0.625952 9.16102 0.564742 8.93213 0.565067 8.69919V2.00932C0.56556 1.65338 0.707179 1.31215 0.95887 1.06046C1.21056 0.808769 1.55179 0.667152 1.90773 0.666658H14.1427ZM3.2 3.59999C3.2 3.45854 3.25619 3.32289 3.35621 3.22287C3.45623 3.12285 3.59188 3.06666 3.73333 3.06666H12.2667C12.4081 3.06666 12.5438 3.12285 12.6438 3.22287C12.7438 3.32289 12.8 3.45854 12.8 3.59999C12.8 3.74144 12.7438 3.8771 12.6438 3.97711C12.5438 4.07713 12.4081 4.13332 12.2667 4.13332H3.73333C3.59188 4.13332 3.45623 4.07713 3.35621 3.97711C3.25619 3.8771 3.2 3.74144 3.2 3.59999ZM16 19.3333C16 23.7517 12.4184 27.3333 8 27.3333C3.5816 27.3333 0 23.7517 0 19.3333C0 14.9149 3.5816 11.3333 8 11.3333C12.4184 11.3333 16 14.9149 16 19.3333ZM7.4928 14.7611C7.65253 14.2699 8.34747 14.2699 8.5072 14.7611L9.25733 17.0696C9.29213 17.1767 9.35995 17.2701 9.45106 17.3363C9.54218 17.4025 9.65191 17.4381 9.76453 17.4381H12.1917C12.7083 17.4381 12.9232 18.0992 12.5053 18.4029L10.5416 19.8296C10.4505 19.8958 10.3826 19.9891 10.3478 20.0962C10.313 20.2033 10.3129 20.3187 10.3477 20.4259L11.0979 22.7341C11.2576 23.2256 10.6952 23.6341 10.2771 23.3304L8.3136 21.9037C8.22246 21.8375 8.11268 21.8018 8 21.8018C7.88732 21.8018 7.77754 21.8375 7.6864 21.9037L5.72293 23.3304C5.3048 23.6344 4.7424 23.2256 4.90213 22.7341L5.65227 20.4259C5.68705 20.3187 5.68703 20.2033 5.65221 20.0962C5.61738 19.9891 5.54954 19.8958 5.4584 19.8296L3.49493 18.4029C3.0768 18.0989 3.29173 17.4381 3.80827 17.4381H6.23547C6.34809 17.4381 6.45782 17.4025 6.54894 17.3363C6.64005 17.2701 6.70787 17.1767 6.74267 17.0696L7.4928 14.7611Z" fill="white"/>
</svg>
